<svg width="75" height="32" viewBox="0 0 75 32" fill="none" xmlns="http://www.w3.org/2000/svg">
<g id="logo-gradient-neutrai-jira">
<g clip-path="url(#clip0)">
<path d="M0 0H75V32H0V0Z" fill="white" fill-opacity="0.01"/>
<g id="Jira">
<path d="M38.3846 6.13371H41.1794V20.1309C41.1794 23.8217 39.5167 26.3983 35.6605 26.3983C34.2101 26.3983 33.078 26.1546 32.2997 25.876V23.195C33.1487 23.5432 34.1747 23.7173 35.2006 23.7173C37.5709 23.7173 38.3846 22.3245 38.3846 20.305V6.13371Z" fill="#505F79"/>
<path d="M46.3092 5.05432C47.4059 5.05432 48.1842 5.71588 48.1842 6.89972C48.1842 8.04875 47.4059 8.74513 46.3092 8.74513C45.2125 8.74513 44.4342 8.08357 44.4342 6.89972C44.4342 5.7507 45.2125 5.05432 46.3092 5.05432ZM44.9295 10.9387H47.6182V26.2591H44.9295V10.9387Z" fill="#505F79"/>
<path d="M54.2689 26.2591H51.651V10.9387H54.2689V13.6198C55.1887 11.8092 56.7453 10.5209 59.7878 10.695V13.2716C56.3562 12.9234 54.2689 13.9331 54.2689 17.2061V26.2591Z" fill="#505F79"/>
<path d="M72.3467 23.5084C71.3562 25.5279 69.4812 26.5724 67.0755 26.5724C62.9364 26.5724 60.8491 23.1254 60.8491 18.5989C60.8491 14.2813 63.0425 10.6254 67.3939 10.6254C69.6581 10.6254 71.4269 11.6351 72.3467 13.6198V10.9387H75.0354V26.2591H72.3467V23.5084ZM67.7831 24.1351C70.1887 24.1351 72.3114 22.6379 72.3114 19.2256V18.007C72.3114 14.5947 70.3656 13.0975 68.0661 13.0975C65.059 13.0975 63.5024 15.0474 63.5024 18.5989C63.5378 22.2897 65.0236 24.1351 67.7831 24.1351Z" fill="#505F79"/>
</g>
<g id="Icon">
<path id="Vector" d="M24.3396 3H12.099C12.099 5.99443 14.5754 8.43176 17.6179 8.43176H19.882V10.5557C19.882 13.5501 22.3584 15.9875 25.4009 15.9875V4.04457C25.4009 3.45265 24.941 3 24.3396 3Z" fill="#7A869A"/>
<path id="Vector_2" d="M18.29 8.98877H6.04944C6.04944 11.9832 8.52585 14.4205 11.5683 14.4205H13.8325V16.5793C13.8325 19.5737 16.3089 22.0111 19.3513 22.0111V10.0333C19.3513 9.47623 18.8914 8.98877 18.29 8.98877Z" fill="url(#paint0_linear)"/>
<path id="Vector_3" d="M12.2406 15.0125H0C0 18.0069 2.47641 20.4442 5.51887 20.4442H7.78302V22.5682C7.78302 25.5626 10.2594 27.9999 13.3019 27.9999V16.057C13.3019 15.4651 12.8066 15.0125 12.2406 15.0125Z" fill="url(#paint1_linear)"/>
</g>
</g>
</g>
<defs>
<linearGradient id="paint0_linear" x1="19.0909" y1="9.01882" x2="13.972" y2="14.3824" gradientUnits="userSpaceOnUse">
<stop offset="0.176" stop-color="#344563"/>
<stop offset="1" stop-color="#7A869A"/>
</linearGradient>
<linearGradient id="paint1_linear" x1="13.3817" y1="15.0525" x2="7.45758" y2="20.9089" gradientUnits="userSpaceOnUse">
<stop offset="0.176" stop-color="#344563"/>
<stop offset="1" stop-color="#7A869A"/>
</linearGradient>
<clipPath id="clip0">
<path d="M0 0H75V32H0V0Z" fill="white"/>
</clipPath>
</defs>
</svg>
